<svg width="359" height="242" viewBox="0 0 359 242" fill="none" xmlns="http://www.w3.org/2000/svg">
<path d="M263.204 241.659C245.847 241.659 231.161 238.544 219.145 232.313C207.128 226.083 197.337 217.516 189.772 206.612C182.206 195.486 176.754 182.691 173.416 168.227C170.078 153.54 168.409 137.964 168.409 121.497C168.409 104.586 170.078 88.7864 173.416 74.1C176.977 59.4135 182.54 46.5072 190.105 35.3811C197.894 24.2549 207.796 15.5766 219.812 9.34594C232.051 3.11532 246.737 0 263.872 0C281.673 0 296.582 3.22657 308.599 9.67971C320.837 16.1329 330.628 25.145 337.971 36.7162C345.537 48.0648 350.878 60.9711 353.993 75.4351C357.331 89.899 359 105.031 359 120.83C359 137.074 357.331 152.428 353.993 166.892C350.655 181.356 345.315 194.262 337.971 205.611C330.628 216.737 320.837 225.526 308.599 231.98C296.36 238.433 281.228 241.659 263.204 241.659ZM263.204 197.6C274.108 197.6 282.675 195.152 288.905 190.257C295.358 185.139 300.143 178.574 303.258 170.563C306.596 162.553 308.71 154.208 309.6 145.53C310.713 136.629 311.269 128.395 311.269 120.83C311.269 113.709 310.713 105.809 309.6 97.131C308.71 88.2301 306.707 79.8855 303.592 72.0973C300.476 64.0865 295.804 57.522 289.573 52.404C283.342 47.286 274.886 44.727 264.205 44.727C253.524 44.727 244.957 47.286 238.504 52.404C232.051 57.2995 227.155 63.7527 223.818 71.7635C220.702 79.7743 218.588 88.1189 217.476 96.7972C216.363 105.476 215.807 113.486 215.807 120.83C215.807 128.173 216.252 136.295 217.142 145.196C218.254 154.097 220.368 162.553 223.484 170.563C226.599 178.574 231.272 185.139 237.503 190.257C243.956 195.152 252.523 197.6 263.204 197.6Z" fill="url(#paint0_linear_51_700)"/>
<path d="M0 238.989V199.603L65.4216 145.196C70.0946 141.19 75.4351 136.74 81.4432 131.845C87.6738 126.727 93.5707 121.275 99.1337 115.489C104.919 109.704 109.592 103.584 113.153 97.131C116.936 90.6779 118.827 84.0022 118.827 77.104C118.827 67.5356 115.823 59.7473 109.815 53.7392C104.029 47.7311 95.4621 44.727 84.1135 44.727C73.4324 44.727 64.9765 47.1747 58.7459 52.0702C52.7378 56.7432 48.9549 62.7513 47.3973 70.0946H1.33513C2.67027 54.2955 7.34324 41.2779 15.354 31.0419C23.5874 20.5833 33.9347 12.795 46.3959 7.67702C58.8572 2.55901 71.986 0 85.7824 0C100.691 0 114.265 2.78152 126.504 8.34458C138.743 13.9076 148.422 22.0297 155.543 32.7108C162.664 43.1693 166.224 56.1869 166.224 71.7635C166.224 85.1148 163.665 97.2423 158.547 108.146C153.652 118.827 146.865 128.84 138.186 138.186C129.508 147.31 119.717 156.099 108.813 164.555L71.4297 194.93H165.89V238.989H0Z" fill="url(#paint1_linear_51_700)"/>
<defs>
<linearGradient id="paint0_linear_51_700" x1="263.705" y1="19.9031" x2="263.705" y2="239.143" gradientUnits="userSpaceOnUse">
<stop stop-color="#163172"/>
<stop offset="1" stop-color="#163172" stop-opacity="0"/>
</linearGradient>
<linearGradient id="paint1_linear_51_700" x1="83.1121" y1="19.6832" x2="83.1121" y2="236.501" gradientUnits="userSpaceOnUse">
<stop stop-color="#163172"/>
<stop offset="1" stop-color="#163172" stop-opacity="0"/>
</linearGradient>
</defs>
</svg>
