<svg width="95" height="96" viewBox="0 0 95 96" fill="none" xmlns="http://www.w3.org/2000/svg">
<path d="M67.1825 1H27.8175L0 28.8193V68.1807L27.8175 96H67.1825L95 68.1807V28.8193L67.1825 1ZM81.0378 65.9729C81.0378 68.0845 80.6218 70.1755 79.8136 72.1263C79.0054 74.0771 77.8208 75.8496 76.3274 77.3425C74.8341 78.8353 73.0615 80.0193 71.1105 80.8269C69.1595 81.6344 67.0684 82.0497 64.9569 82.0489H30.037C25.7737 82.0489 21.6849 80.3552 18.6703 77.3404C15.6556 74.3255 13.9622 70.2365 13.9622 65.9729V31.0508C13.9615 28.9392 14.3766 26.848 15.1841 24.8969C15.9916 22.9458 17.1755 21.1729 18.6682 19.6795C20.161 18.1861 21.9333 17.0014 23.884 16.1931C25.8347 15.3849 27.9255 14.9688 30.037 14.9688H64.9569C67.0689 14.9681 69.1606 15.3835 71.1119 16.1914C73.0633 16.9994 74.8363 18.1839 76.3297 19.6774C77.8232 21.1709 79.0075 22.9441 79.8153 24.8956C80.6232 26.8471 81.0385 28.9387 81.0378 31.0508V65.9729Z" fill="#163172"/>
</svg>
