<svg width="166" height="40" viewBox="0 0 166 40" fill="none" xmlns="http://www.w3.org/2000/svg">
<g clip-path="url(#clip0_51_635)">
<path d="M7.58076 20.817C7.33228 20.5667 7.19283 20.2283 7.19283 19.8756C7.19283 19.5229 7.33228 19.1846 7.58076 18.9343L21.8312 4.68387C21.9552 4.5601 22.0535 4.41309 22.1207 4.25126C22.1878 4.08943 22.2223 3.91594 22.2223 3.74074C22.2223 3.56554 22.1878 3.39207 22.1207 3.23024C22.0535 3.06841 21.9552 2.9214 21.8312 2.79763L20.12 1.08643C19.9965 0.96254 19.8498 0.864239 19.6883 0.797165C19.5267 0.730091 19.3535 0.695557 19.1786 0.695557C19.0037 0.695557 18.8305 0.730091 18.669 0.797165C18.5075 0.864239 18.3608 0.96254 18.2373 1.08643L0.375165 18.9486C0.126687 19.1989 -0.0127563 19.5372 -0.0127563 19.8899C-0.0127563 20.2426 0.126687 20.581 0.375165 20.8312L18.2373 38.6934C18.4876 38.9419 18.826 39.0813 19.1786 39.0813C19.5313 39.0813 19.8697 38.9419 20.12 38.6934L21.8312 36.9786C21.9551 36.8551 22.0534 36.7084 22.1204 36.5469C22.1875 36.3854 22.222 36.2122 22.222 36.0373C22.222 35.8624 22.1875 35.6892 22.1204 35.5277C22.0534 35.3661 21.9551 35.2194 21.8312 35.0959L7.58076 20.817Z" fill="#D6E4F0"/>
<path d="M47.5561 18.9344L29.694 1.07226C29.5705 0.948369 29.4238 0.850068 29.2623 0.782994C29.1008 0.715919 28.9276 0.681396 28.7527 0.681396C28.5778 0.681396 28.4046 0.715919 28.243 0.782994C28.0815 0.850068 27.9348 0.948369 27.8113 1.07226L9.9492 18.9344C9.70072 19.1847 9.56128 19.5231 9.56128 19.8757C9.56128 20.2284 9.70072 20.5668 9.9492 20.8171L27.8113 38.6792C28.0616 38.9277 28.4 39.0671 28.7527 39.0671C29.1053 39.0671 29.4437 38.9277 29.694 38.6792L47.5561 20.8171C47.8046 20.5668 47.9441 20.2284 47.9441 19.8757C47.9441 19.5231 47.8046 19.1847 47.5561 18.9344ZM38.3286 28.112C38.3286 28.287 38.2941 28.4602 38.2271 28.6219C38.1602 28.7836 38.062 28.9305 37.9383 29.0542C37.8145 29.1779 37.6676 29.2761 37.506 29.3431C37.3443 29.41 37.171 29.4445 36.9961 29.4445H20.5307C20.1773 29.4445 19.8384 29.3041 19.5885 29.0542C19.3386 28.8043 19.1982 28.4654 19.1982 28.112V11.6466C19.1982 11.2932 19.3386 10.9543 19.5885 10.7044C19.8384 10.4545 20.1773 10.3141 20.5307 10.3141H36.9961C37.3495 10.3141 37.6884 10.4545 37.9383 10.7044C38.1882 10.9543 38.3286 11.2932 38.3286 11.6466V28.112Z" fill="#D6E4F0"/>
<path d="M57.5089 12.4717C57.5018 12.4203 57.5067 12.368 57.5232 12.3188C57.5397 12.2696 57.5674 12.2249 57.6041 12.1882C57.6408 12.1515 57.6855 12.1238 57.7347 12.1073C57.7838 12.0908 57.8362 12.0859 57.8876 12.093H59.5166C59.568 12.0859 59.6204 12.0908 59.6695 12.1073C59.7187 12.1238 59.7634 12.1515 59.8001 12.1882C59.8368 12.2249 59.8645 12.2696 59.881 12.3188C59.8975 12.368 59.9024 12.4203 59.8953 12.4717V27.3294C59.9025 27.3807 59.8977 27.4329 59.8812 27.482C59.8647 27.5311 59.8369 27.5756 59.8001 27.6121C59.7634 27.6485 59.7186 27.6759 59.6693 27.6919C59.6201 27.708 59.5678 27.7123 59.5166 27.7045H57.8876C57.8364 27.7123 57.7841 27.708 57.7349 27.6919C57.6856 27.6759 57.6408 27.6485 57.604 27.6121C57.5673 27.5756 57.5395 27.5311 57.523 27.482C57.5065 27.4329 57.5016 27.3807 57.5089 27.3294V12.4717Z" fill="#D6E4F0"/>
<path d="M76.8608 27.3546C76.8681 27.4059 76.8633 27.4581 76.8467 27.5072C76.8302 27.5563 76.8025 27.6008 76.7657 27.6373C76.7289 27.6737 76.6841 27.701 76.6349 27.7171C76.5856 27.7331 76.5333 27.7375 76.4821 27.7297H74.8531C74.8019 27.7375 74.7496 27.7331 74.7004 27.7171C74.6512 27.701 74.6064 27.6737 74.5696 27.6373C74.5328 27.6008 74.505 27.5563 74.4885 27.5072C74.472 27.4581 74.4672 27.4059 74.4744 27.3546V17.0374C74.4903 16.549 74.4052 16.0625 74.2244 15.6085C74.0751 15.2532 73.8272 14.9482 73.5099 14.7296C73.1757 14.5095 72.8001 14.36 72.406 14.2902C71.935 14.2014 71.4563 14.1595 70.977 14.1652H68.0905C67.6112 14.1594 67.1325 14.2012 66.6615 14.2902C66.2673 14.3593 65.8915 14.5089 65.5577 14.7296C65.2386 14.9463 64.9901 15.2518 64.8432 15.6085C64.6611 16.0622 64.5747 16.5487 64.5895 17.0374V27.3546C64.5961 27.4039 64.5916 27.454 64.5762 27.5013C64.5609 27.5485 64.5351 27.5918 64.5008 27.6278C64.4665 27.6638 64.4246 27.6916 64.3781 27.7093C64.3317 27.7269 64.2818 27.7339 64.2323 27.7297H62.5997C62.5502 27.7339 62.5003 27.7269 62.4538 27.7093C62.4074 27.6916 62.3654 27.6638 62.3312 27.6278C62.2969 27.5918 62.2711 27.5485 62.2558 27.5013C62.2404 27.454 62.2359 27.4039 62.2424 27.3546V17.0124C62.2152 16.1818 62.3562 15.3543 62.6569 14.5796C62.91 13.971 63.3221 13.4417 63.85 13.047C64.4027 12.649 65.0354 12.376 65.7041 12.2468C66.4978 12.0868 67.3059 12.0102 68.1155 12.0182H71.002C71.8104 12.01 72.6175 12.0866 73.4099 12.2468C74.0799 12.3753 74.7139 12.6484 75.2675 13.047C75.7945 13.4427 76.2064 13.9717 76.4607 14.5796C76.7614 15.3543 76.9023 16.1818 76.8751 17.0124L76.8608 27.3546Z" fill="#D6E4F0"/>
<path d="M83.8377 27.7047C83.7866 27.7117 83.7347 27.7068 83.6858 27.6905C83.6369 27.6742 83.5924 27.6468 83.5558 27.6106C83.5192 27.5743 83.4914 27.5301 83.4747 27.4813C83.4579 27.4326 83.4525 27.3807 83.459 27.3296V14.2545H78.3647C78.315 14.2581 78.2652 14.2506 78.2187 14.2325C78.1722 14.2144 78.1304 14.1862 78.0962 14.15C78.062 14.1137 78.0363 14.0703 78.0209 14.0229C78.0056 13.9755 78.001 13.9252 78.0075 13.8758V12.4718C78.001 12.4224 78.0056 12.3722 78.0209 12.3247C78.0363 12.2773 78.062 12.2339 78.0962 12.1977C78.1304 12.1614 78.1722 12.1332 78.2187 12.1151C78.2652 12.0971 78.315 12.0896 78.3647 12.0932H90.9397C90.9894 12.0896 91.0393 12.0971 91.0858 12.1151C91.1322 12.1332 91.1741 12.1614 91.2083 12.1977C91.2425 12.2339 91.2682 12.2773 91.2835 12.3247C91.2988 12.3722 91.3034 12.4224 91.2969 12.4718V13.8758C91.3034 13.9252 91.2988 13.9755 91.2835 14.0229C91.2682 14.0703 91.2425 14.1137 91.2083 14.15C91.1741 14.1862 91.1322 14.2144 91.0858 14.2325C91.0393 14.2506 90.9894 14.2581 90.9397 14.2545H85.8454V27.3296C85.8527 27.3808 85.8479 27.4331 85.8313 27.4822C85.8148 27.5312 85.7871 27.5758 85.7503 27.6122C85.7135 27.6487 85.6687 27.676 85.6194 27.6921C85.5702 27.7081 85.5179 27.7124 85.4667 27.7047H83.8377Z" fill="#D6E4F0"/>
<path d="M104.29 12.0933C104.341 12.0862 104.394 12.091 104.443 12.1076C104.492 12.1241 104.537 12.1518 104.573 12.1885C104.61 12.2251 104.638 12.2698 104.654 12.319C104.671 12.3682 104.676 12.4205 104.669 12.4719V13.8009C104.669 14.0688 104.543 14.2046 104.29 14.2046H96.3591C95.9441 14.1817 95.5346 14.3085 95.2052 14.5618C95.053 14.7134 94.936 14.8967 94.8625 15.0986C94.7891 15.3005 94.7609 15.516 94.7801 15.73V18.8487H103.336C103.388 18.8408 103.44 18.8452 103.49 18.8614C103.539 18.8777 103.584 18.9053 103.621 18.9422C103.658 18.9791 103.686 19.0241 103.702 19.0737C103.718 19.1232 103.723 19.1759 103.715 19.2274V20.5563C103.722 20.6076 103.717 20.6599 103.701 20.7089C103.684 20.758 103.656 20.8026 103.62 20.839C103.583 20.8754 103.538 20.9028 103.489 20.9188C103.44 20.9349 103.387 20.9392 103.336 20.9314H94.7801V24.018C94.7801 25.0898 95.3064 25.6256 96.3591 25.6256H104.29C104.341 25.6179 104.393 25.6222 104.443 25.6382C104.492 25.6543 104.537 25.6816 104.573 25.7181C104.61 25.7545 104.638 25.7991 104.654 25.8481C104.671 25.8972 104.676 25.9495 104.669 26.0007V27.3332C104.676 27.3845 104.671 27.4368 104.654 27.4858C104.638 27.5349 104.61 27.5795 104.573 27.6159C104.537 27.6523 104.492 27.6797 104.443 27.6957C104.393 27.7118 104.341 27.7161 104.29 27.7083H95.9089C95.4175 27.7144 94.9274 27.6555 94.4514 27.5333C94.0475 27.4314 93.6707 27.2424 93.3475 26.9796C93.0294 26.7156 92.7835 26.3751 92.633 25.99C92.4524 25.5134 92.3663 25.0062 92.3794 24.4967V15.4335C92.3523 14.9872 92.4139 14.5399 92.5604 14.1175C92.7069 13.6951 92.9356 13.3058 93.2332 12.9721C93.557 12.6659 93.9405 12.4299 94.3597 12.2786C94.779 12.1274 95.2249 12.0643 95.6696 12.0933H104.29Z" fill="#D6E4F0"/>
<path d="M118.558 27.7046L118.383 26.9901C118.151 27.2555 117.851 27.452 117.515 27.5582C117.119 27.6725 116.709 27.7267 116.297 27.7189H109.627C109.184 27.7459 108.74 27.6809 108.323 27.5278C107.906 27.3747 107.525 27.1369 107.205 26.8294C106.905 26.4995 106.674 26.1133 106.525 25.6931C106.376 25.273 106.312 24.8274 106.337 24.3823V15.4512C106.31 15.0037 106.373 14.5554 106.522 14.1326C106.671 13.7098 106.903 13.3212 107.205 12.9898C107.527 12.6854 107.908 12.4504 108.325 12.2993C108.742 12.1481 109.185 12.084 109.627 12.111H116.979C117.851 12.0672 118.709 12.3442 119.391 12.8898C119.991 13.409 120.291 14.1877 120.291 15.2261V15.7013C120.291 15.9692 120.166 16.1049 119.934 16.1049H118.301C118.137 16.1049 118.051 16.0013 118.051 15.8513V15.6012C118.066 15.405 118.034 15.208 117.957 15.0266C117.881 14.8452 117.762 14.6846 117.612 14.5581C117.28 14.3215 116.879 14.2032 116.472 14.2223H110.288C109.87 14.1998 109.459 14.3335 109.134 14.5974C108.982 14.7515 108.866 14.9367 108.792 15.1402C108.719 15.3437 108.691 15.5607 108.709 15.7763V24.0572C108.689 24.2771 108.717 24.4988 108.791 24.7071C108.864 24.9154 108.981 25.1055 109.134 25.2646C109.461 25.5221 109.873 25.6494 110.288 25.6219H116.44C116.847 25.6397 117.248 25.5202 117.579 25.2825C117.73 25.1569 117.849 24.997 117.925 24.8162C118.002 24.6353 118.034 24.4387 118.019 24.2429V21.2064H112.66C112.392 21.2064 112.256 21.0778 112.256 20.8277V19.5238C112.256 19.472 112.267 19.4208 112.287 19.3733C112.308 19.3258 112.338 19.2831 112.376 19.2479C112.414 19.2127 112.459 19.1856 112.508 19.1686C112.557 19.1515 112.609 19.1447 112.66 19.1487H119.762C119.83 19.1384 119.9 19.1442 119.965 19.1657C120.03 19.1872 120.09 19.2238 120.139 19.2724C120.187 19.3211 120.224 19.3805 120.245 19.4459C120.267 19.5112 120.273 19.5807 120.262 19.6488V27.3045C120.269 27.3587 120.264 27.4138 120.246 27.4655C120.229 27.5173 120.199 27.5643 120.161 27.6029C120.122 27.6416 120.075 27.6708 120.023 27.6885C119.971 27.7061 119.916 27.7116 119.862 27.7046H118.558Z" fill="#D6E4F0"/>
<path d="M124.989 27.3297C124.995 27.3789 124.991 27.4291 124.975 27.4763C124.96 27.5236 124.934 27.5668 124.9 27.6028C124.866 27.6388 124.824 27.6667 124.777 27.6843C124.731 27.702 124.681 27.709 124.631 27.7048H122.988C122.938 27.709 122.889 27.702 122.842 27.6843C122.796 27.6667 122.754 27.6388 122.719 27.6028C122.685 27.5668 122.659 27.5236 122.644 27.4763C122.629 27.4291 122.624 27.3789 122.631 27.3297V12.0933H132.066C133.587 12.0933 134.675 12.4791 135.327 13.2507C135.98 14.0224 136.306 15.1596 136.306 16.6624V17.0625C136.309 17.5422 136.263 18.0209 136.17 18.4915C136.088 18.912 135.934 19.3155 135.717 19.6847C135.503 20.0407 135.223 20.3524 134.891 20.6028C134.5 20.8832 134.062 21.0913 133.598 21.2172L136.338 27.4226C136.424 27.6226 136.356 27.7226 136.138 27.7226H134.33C134.239 27.7225 134.15 27.6933 134.076 27.6394C134.002 27.5855 133.948 27.5096 133.92 27.4226L131.419 21.5745H124.989V27.3297ZM133.873 16.6124C133.923 15.9681 133.751 15.3261 133.384 14.794C133.057 14.401 132.476 14.2046 131.64 14.2046H124.989V19.699H131.64C132.476 19.699 133.069 19.4668 133.384 18.9845C133.735 18.423 133.906 17.7671 133.873 17.1054V16.6124Z" fill="#D6E4F0"/>
<path d="M150.092 12.0933C150.143 12.0862 150.196 12.091 150.245 12.1076C150.294 12.1241 150.339 12.1518 150.375 12.1885C150.412 12.2251 150.44 12.2698 150.456 12.319C150.473 12.3682 150.478 12.4205 150.471 12.4719V13.8009C150.471 14.0688 150.346 14.2046 150.092 14.2046H142.161C141.746 14.1817 141.337 14.3085 141.007 14.5618C140.855 14.7134 140.738 14.8967 140.665 15.0986C140.591 15.3005 140.563 15.516 140.582 15.73V18.8487H149.156C149.208 18.8408 149.26 18.8452 149.31 18.8614C149.359 18.8777 149.404 18.9053 149.441 18.9422C149.478 18.9791 149.506 19.0241 149.522 19.0737C149.538 19.1232 149.543 19.1759 149.535 19.2274V20.5563C149.542 20.6076 149.537 20.6599 149.521 20.7089C149.504 20.758 149.476 20.8026 149.44 20.839C149.403 20.8754 149.358 20.9028 149.309 20.9188C149.259 20.9349 149.207 20.9392 149.156 20.9314H140.582V24.018C140.582 25.0898 141.109 25.6256 142.161 25.6256H150.092C150.143 25.6179 150.195 25.6222 150.245 25.6382C150.294 25.6543 150.339 25.6816 150.375 25.7181C150.412 25.7545 150.44 25.7991 150.457 25.8481C150.473 25.8972 150.478 25.9495 150.471 26.0007V27.3332C150.478 27.3845 150.473 27.4368 150.457 27.4858C150.44 27.5349 150.412 27.5795 150.375 27.6159C150.339 27.6523 150.294 27.6797 150.245 27.6957C150.195 27.7118 150.143 27.7161 150.092 27.7083H141.711C141.22 27.7144 140.73 27.6555 140.253 27.5333C139.85 27.4314 139.473 27.2424 139.15 26.9796C138.831 26.7156 138.586 26.3751 138.435 25.99C138.255 25.5134 138.168 25.0062 138.181 24.4967V15.4335C138.154 14.9872 138.216 14.5399 138.363 14.1175C138.509 13.6951 138.738 13.3058 139.035 12.9721C139.359 12.6659 139.743 12.4299 140.162 12.2786C140.581 12.1274 141.027 12.0643 141.472 12.0933H150.092Z" fill="#D6E4F0"/>
<path d="M157.473 20.9278C157.255 20.9278 157.08 21.0778 156.944 21.3815L154.182 27.3546C154.141 27.4653 154.065 27.5598 153.966 27.6242C153.867 27.6885 153.75 27.7192 153.632 27.7118H151.846C151.596 27.7118 151.521 27.5939 151.621 27.3546L155.133 19.8989L151.646 12.4468C151.546 12.211 151.61 12.0896 151.846 12.0896H153.654C153.768 12.0848 153.881 12.117 153.975 12.1813C154.07 12.2456 154.141 12.3387 154.179 12.4468L156.915 18.3449C156.983 18.4771 157.051 18.595 157.115 18.7021C157.157 18.7556 157.212 18.7975 157.274 18.8238C157.337 18.85 157.405 18.8598 157.473 18.8522H160.13C160.198 18.8602 160.266 18.8506 160.329 18.8243C160.391 18.798 160.446 18.7559 160.488 18.7021C160.569 18.5894 160.641 18.4698 160.702 18.3449L163.413 12.4468C163.462 12.3411 163.539 12.2514 163.637 12.1881C163.734 12.1248 163.847 12.0906 163.964 12.0896H165.75C166 12.0896 166.075 12.2087 165.975 12.4468L162.463 19.8989L165.975 27.3546C166.075 27.5868 166.011 27.7118 165.775 27.7118H163.967C163.853 27.7166 163.74 27.6844 163.646 27.6201C163.551 27.5558 163.48 27.4626 163.442 27.3546L160.656 21.3815C160.606 21.2612 160.543 21.1473 160.466 21.0421C160.43 21.0024 160.385 20.9716 160.335 20.9518C160.285 20.932 160.231 20.9238 160.177 20.9278H157.473Z" fill="#D6E4F0"/>
</g>
<defs>
<clipPath id="clip0_51_635">
<rect width="166" height="38.3572" fill="white" transform="translate(0 0.697021)"/>
</clipPath>
</defs>
</svg>
