<svg width="198" height="46" viewBox="0 0 198 46" fill="none" xmlns="http://www.w3.org/2000/svg">
<g clip-path="url(#clip0_69_2)">
<path d="M9.04206 23.9983C8.74569 23.6997 8.57936 23.2961 8.57936 22.8755C8.57936 22.4548 8.74569 22.0512 9.04206 21.7527L26.0395 4.75519C26.1874 4.60756 26.3048 4.43222 26.3849 4.23919C26.4649 4.04616 26.5061 3.83923 26.5061 3.63026C26.5061 3.42128 26.4649 3.21437 26.3849 3.02134C26.3048 2.82831 26.1874 2.65296 26.0395 2.50534L23.9985 0.464272C23.8512 0.316497 23.6762 0.199247 23.4836 0.119242C23.2909 0.0392379 23.0843 -0.00195312 22.8757 -0.00195312C22.6671 -0.00195312 22.4605 0.0392379 22.2678 0.119242C22.0751 0.199247 21.9001 0.316497 21.7529 0.464272L0.447443 21.7697C0.151065 22.0682 -0.0152588 22.4718 -0.0152588 22.8925C-0.0152588 23.3132 0.151065 23.7168 0.447443 24.0153L21.7529 45.3207C22.0514 45.6171 22.455 45.7834 22.8757 45.7834C23.2964 45.7834 23.7 45.6171 23.9985 45.3207L26.0395 43.2754C26.1873 43.1282 26.3046 42.9532 26.3846 42.7605C26.4646 42.5678 26.5058 42.3613 26.5058 42.1526C26.5058 41.944 26.4646 41.7374 26.3846 41.5448C26.3046 41.3521 26.1873 41.1771 26.0395 41.0298L9.04206 23.9983Z" fill="#D6E4F0"/>
<path d="M56.7237 21.7529L35.4182 0.447414C35.271 0.299638 35.096 0.182388 34.9033 0.102384C34.7106 0.0223792 34.504 -0.0187988 34.2954 -0.0187988C34.0868 -0.0187988 33.8802 0.0223792 33.6875 0.102384C33.4949 0.182388 33.3199 0.299638 33.1726 0.447414L11.8672 21.7529C11.5708 22.0514 11.4045 22.455 11.4045 22.8757C11.4045 23.2963 11.5708 23.6999 11.8672 23.9985L33.1726 45.3039C33.4712 45.6003 33.8747 45.7666 34.2954 45.7666C34.7161 45.7666 35.1197 45.6003 35.4182 45.3039L56.7237 23.9985C57.02 23.6999 57.1864 23.2963 57.1864 22.8757C57.1864 22.455 57.02 22.0514 56.7237 21.7529ZM45.7173 32.6996C45.7173 32.9083 45.6762 33.115 45.5963 33.3078C45.5164 33.5007 45.3993 33.6759 45.2517 33.8235C45.1042 33.971 44.9289 34.0881 44.7361 34.168C44.5433 34.2479 44.3366 34.289 44.1279 34.289H24.4885C24.067 34.289 23.6627 34.1215 23.3647 33.8235C23.0666 33.5254 22.8991 33.1211 22.8991 32.6996V13.0602C22.8991 12.6387 23.0666 12.2344 23.3647 11.9364C23.6627 11.6383 24.067 11.4708 24.4885 11.4708H44.1279C44.5494 11.4708 44.9537 11.6383 45.2517 11.9364C45.5498 12.2344 45.7173 12.6387 45.7173 13.0602V32.6996Z" fill="#D6E4F0"/>
<path d="M68.595 14.0446C68.5866 13.9833 68.5924 13.9208 68.6121 13.8622C68.6318 13.8035 68.6648 13.7502 68.7086 13.7064C68.7523 13.6627 68.8056 13.6296 68.8643 13.6099C68.923 13.5902 68.9854 13.5844 69.0467 13.5929H70.9898C71.0511 13.5844 71.1135 13.5902 71.1722 13.6099C71.2309 13.6296 71.2842 13.6627 71.3279 13.7064C71.3717 13.7502 71.4047 13.8035 71.4244 13.8622C71.4441 13.9208 71.4499 13.9833 71.4414 14.0446V31.7664C71.4501 31.8276 71.4444 31.8899 71.4247 31.9484C71.405 32.007 71.3719 32.0601 71.328 32.1036C71.2841 32.147 71.2307 32.1796 71.172 32.1988C71.1132 32.2179 71.0508 32.2231 70.9898 32.2139H69.0467C68.9857 32.2231 68.9233 32.2179 68.8646 32.1988C68.8058 32.1796 68.7524 32.147 68.7085 32.1036C68.6647 32.0601 68.6315 32.007 68.6118 31.9484C68.5921 31.8899 68.5864 31.8276 68.595 31.7664V14.0446Z" fill="#D6E4F0"/>
<path d="M91.6773 31.7962C91.686 31.8574 91.6802 31.9197 91.6605 31.9783C91.6408 32.0368 91.6077 32.0899 91.5638 32.1334C91.52 32.1768 91.4665 32.2094 91.4078 32.2286C91.3491 32.2477 91.2867 32.2529 91.2256 32.2437H89.2826C89.2215 32.2529 89.1591 32.2477 89.1004 32.2286C89.0417 32.2094 88.9883 32.1768 88.9444 32.1334C88.9005 32.0899 88.8674 32.0368 88.8477 31.9783C88.828 31.9197 88.8222 31.8574 88.8309 31.7962V19.4902C88.8498 18.9076 88.7483 18.3274 88.5327 17.7858C88.3547 17.3621 88.0589 16.9983 87.6804 16.7376C87.2818 16.475 86.8338 16.2966 86.3637 16.2134C85.8019 16.1075 85.231 16.0576 84.6593 16.0643H81.2163C80.6447 16.0574 80.0737 16.1073 79.5119 16.2134C79.0417 16.2958 78.5935 16.4742 78.1952 16.7376C77.8146 16.9959 77.5183 17.3604 77.343 17.7858C77.1258 18.327 77.0228 18.9073 77.0405 19.4902V31.7962C77.0483 31.855 77.0429 31.9148 77.0246 31.9712C77.0063 32.0276 76.9755 32.0791 76.9347 32.1221C76.8938 32.165 76.8438 32.1982 76.7883 32.2193C76.7329 32.2403 76.6735 32.2486 76.6144 32.2437H74.6671C74.608 32.2486 74.5485 32.2403 74.4931 32.2193C74.4377 32.1982 74.3877 32.165 74.3468 32.1221C74.3059 32.0791 74.2752 32.0276 74.2568 31.9712C74.2385 31.9148 74.2331 31.855 74.2409 31.7962V19.4604C74.2085 18.4697 74.3766 17.4827 74.7352 16.5586C75.0372 15.8327 75.5287 15.2013 76.1584 14.7306C76.8177 14.2559 77.5723 13.9302 78.3699 13.7761C79.3166 13.5852 80.2805 13.4938 81.2462 13.5034H84.6891C85.6534 13.4936 86.616 13.585 87.5611 13.7761C88.3603 13.9293 89.1165 14.2551 89.7769 14.7306C90.4054 15.2025 90.8967 15.8335 91.2001 16.5586C91.5587 17.4827 91.7268 18.4697 91.6944 19.4604L91.6773 31.7962Z" fill="#D6E4F0"/>
<path d="M99.9992 32.2138C99.9383 32.2221 99.8763 32.2164 99.818 32.1969C99.7597 32.1774 99.7066 32.1448 99.663 32.1015C99.6193 32.0583 99.5862 32.0055 99.5662 31.9474C99.5462 31.8893 99.5398 31.8274 99.5475 31.7664V16.1708H93.4712C93.4119 16.1751 93.3524 16.1662 93.297 16.1446C93.2416 16.123 93.1917 16.0894 93.1509 16.0462C93.1101 16.0029 93.0794 15.9511 93.0611 15.8946C93.0428 15.838 93.0374 15.7781 93.0451 15.7191V14.0445C93.0374 13.9856 93.0428 13.9256 93.0611 13.8691C93.0794 13.8125 93.1101 13.7607 93.1509 13.7175C93.1917 13.6742 93.2416 13.6406 93.297 13.6191C93.3524 13.5975 93.4119 13.5885 93.4712 13.5928H108.47C108.53 13.5885 108.589 13.5975 108.644 13.6191C108.7 13.6406 108.75 13.6742 108.791 13.7175C108.831 13.7607 108.862 13.8125 108.88 13.8691C108.899 13.9256 108.904 13.9856 108.896 14.0445V15.7191C108.904 15.7781 108.899 15.838 108.88 15.8946C108.862 15.9511 108.831 16.0029 108.791 16.0462C108.75 16.0894 108.7 16.123 108.644 16.1446C108.589 16.1662 108.53 16.1751 108.47 16.1708H102.394V31.7664C102.403 31.8275 102.397 31.8899 102.377 31.9484C102.357 32.0069 102.324 32.0601 102.28 32.1035C102.237 32.147 102.183 32.1796 102.124 32.1988C102.066 32.2179 102.003 32.2231 101.942 32.2138H99.9992Z" fill="#D6E4F0"/>
<path d="M124.394 13.5931C124.455 13.5846 124.518 13.5905 124.576 13.6102C124.635 13.6299 124.688 13.6629 124.732 13.7067C124.776 13.7504 124.809 13.8037 124.829 13.8624C124.848 13.9211 124.854 13.9835 124.846 14.0448V15.6299C124.846 15.9495 124.696 16.1114 124.394 16.1114H114.934C114.439 16.0841 113.951 16.2353 113.558 16.5375C113.376 16.7184 113.237 16.937 113.149 17.1778C113.062 17.4186 113.028 17.6757 113.051 17.9309V21.6508H123.256C123.318 21.6414 123.381 21.6466 123.44 21.666C123.499 21.6854 123.552 21.7184 123.596 21.7623C123.64 21.8063 123.673 21.86 123.693 21.9191C123.712 21.9782 123.717 22.041 123.708 22.1025V23.6876C123.717 23.7488 123.711 23.8111 123.691 23.8697C123.671 23.9282 123.638 23.9813 123.594 24.0248C123.551 24.0682 123.497 24.1008 123.438 24.12C123.38 24.1391 123.317 24.1443 123.256 24.135H113.051V27.8166C113.051 29.095 113.679 29.7341 114.934 29.7341H124.394C124.455 29.7249 124.517 29.73 124.576 29.7492C124.635 29.7683 124.688 29.8009 124.732 29.8444C124.776 29.8879 124.809 29.941 124.829 29.9995C124.849 30.0581 124.854 30.1204 124.846 30.1815V31.7709C124.854 31.8321 124.849 31.8944 124.829 31.9529C124.809 32.0115 124.776 32.0646 124.732 32.1081C124.688 32.1515 124.635 32.1841 124.576 32.2033C124.517 32.2224 124.455 32.2276 124.394 32.2183H114.397C113.811 32.2256 113.227 32.1554 112.659 32.0095C112.177 31.888 111.728 31.6626 111.342 31.3491C110.963 31.0342 110.67 30.628 110.49 30.1688C110.275 29.6003 110.172 28.9953 110.187 28.3876V17.5772C110.155 17.0449 110.229 16.5114 110.403 16.0076C110.578 15.5037 110.851 15.0394 111.206 14.6413C111.592 14.2762 112.05 13.9946 112.55 13.8142C113.05 13.6339 113.582 13.5586 114.112 13.5931H124.394Z" fill="#D6E4F0"/>
<path d="M141.413 32.214L141.204 31.3618C140.927 31.6782 140.569 31.9126 140.168 32.0393C139.696 32.1757 139.207 32.2403 138.715 32.231H130.76C130.231 32.2633 129.702 32.1857 129.204 32.003C128.707 31.8204 128.253 31.5368 127.871 31.17C127.513 30.7766 127.237 30.3158 127.06 29.8147C126.882 29.3136 126.806 28.7821 126.836 28.2512V17.5984C126.803 17.0647 126.878 16.5299 127.056 16.0257C127.234 15.5214 127.511 15.0579 127.871 14.6626C128.255 14.2995 128.71 14.0192 129.207 13.8389C129.704 13.6586 130.232 13.5822 130.76 13.6143H139.529C140.569 13.5621 141.593 13.8926 142.406 14.5432C143.121 15.1625 143.479 16.0914 143.479 17.33V17.8967C143.479 18.2163 143.33 18.3782 143.053 18.3782H141.106C140.91 18.3782 140.808 18.2546 140.808 18.0757V17.7774C140.825 17.5433 140.787 17.3083 140.696 17.092C140.605 16.8756 140.463 16.6841 140.284 16.5332C139.888 16.2509 139.409 16.1098 138.924 16.1326H131.548C131.05 16.1058 130.559 16.2653 130.172 16.58C129.991 16.7639 129.852 16.9848 129.764 17.2275C129.677 17.4703 129.643 17.7291 129.665 17.9862V27.8634C129.641 28.1258 129.675 28.3901 129.762 28.6386C129.85 28.887 129.989 29.1138 130.172 29.3036C130.562 29.6108 131.053 29.7626 131.548 29.7298H138.886C139.372 29.751 139.85 29.6084 140.245 29.325C140.425 29.1752 140.567 28.9844 140.658 28.7687C140.749 28.553 140.787 28.3185 140.769 28.085V24.4631H134.378C134.058 24.4631 133.896 24.3097 133.896 24.0114V22.4561C133.896 22.3944 133.909 22.3332 133.933 22.2766C133.958 22.22 133.994 22.1691 134.039 22.127C134.084 22.085 134.138 22.0528 134.196 22.0324C134.254 22.0121 134.316 22.004 134.378 22.0087H142.849C142.93 21.9964 143.013 22.0034 143.091 22.029C143.169 22.0546 143.24 22.0982 143.298 22.1563C143.356 22.2143 143.399 22.2852 143.425 22.3632C143.451 22.4412 143.458 22.5241 143.445 22.6052V31.7367C143.454 31.8014 143.447 31.8671 143.426 31.9288C143.405 31.9905 143.37 32.0466 143.324 32.0927C143.278 32.1388 143.222 32.1737 143.16 32.1947C143.098 32.2157 143.033 32.2223 142.968 32.214H141.413Z" fill="#D6E4F0"/>
<path d="M149.083 31.7666C149.091 31.8253 149.085 31.8851 149.067 31.9415C149.049 31.9979 149.018 32.0495 148.977 32.0924C148.936 32.1353 148.886 32.1685 148.831 32.1896C148.775 32.2106 148.716 32.219 148.657 32.214H146.697C146.637 32.219 146.578 32.2106 146.523 32.1896C146.467 32.1685 146.417 32.1353 146.376 32.0924C146.335 32.0495 146.305 31.9979 146.286 31.9415C146.268 31.8851 146.263 31.8253 146.27 31.7666V13.593H157.524C159.339 13.593 160.636 14.0532 161.414 14.9736C162.193 15.894 162.582 17.2505 162.582 19.043V19.5202C162.585 20.0923 162.531 20.6634 162.42 21.2246C162.321 21.7263 162.138 22.2075 161.879 22.6478C161.624 23.0725 161.29 23.4443 160.894 23.7429C160.428 24.0774 159.906 24.3256 159.352 24.4758L162.62 31.8773C162.722 32.116 162.642 32.2353 162.382 32.2353H160.225C160.116 32.2351 160.01 32.2003 159.922 32.136C159.834 32.0717 159.769 31.9812 159.735 31.8773L156.753 24.9019H149.083V31.7666ZM159.68 18.9833C159.74 18.2148 159.534 17.4491 159.096 16.8144C158.707 16.3457 158.014 16.1113 157.017 16.1113H149.083V22.6649H157.017C158.014 22.6649 158.721 22.3879 159.096 21.8127C159.516 21.1429 159.719 20.3606 159.68 19.5713V18.9833Z" fill="#D6E4F0"/>
<path d="M179.025 13.5931C179.087 13.5846 179.149 13.5905 179.208 13.6102C179.266 13.6299 179.32 13.6629 179.364 13.7067C179.407 13.7504 179.44 13.8037 179.46 13.8624C179.48 13.9211 179.486 13.9835 179.477 14.0448V15.6299C179.477 15.9495 179.328 16.1114 179.025 16.1114H169.566C169.071 16.0841 168.582 16.2353 168.189 16.5375C168.008 16.7184 167.868 16.937 167.781 17.1778C167.693 17.4186 167.66 17.6757 167.682 17.9309V21.6508H177.909C177.97 21.6414 178.033 21.6466 178.092 21.666C178.151 21.6854 178.205 21.7184 178.249 21.7623C178.293 21.8063 178.326 21.86 178.346 21.9191C178.365 21.9782 178.37 22.041 178.361 22.1025V23.6876C178.369 23.7488 178.364 23.8111 178.344 23.8697C178.324 23.9282 178.291 23.9813 178.247 24.0248C178.203 24.0682 178.15 24.1008 178.091 24.12C178.032 24.1391 177.97 24.1443 177.909 24.135H167.682V27.8166C167.682 29.095 168.31 29.7341 169.566 29.7341H179.025C179.086 29.7249 179.149 29.73 179.208 29.7492C179.266 29.7683 179.32 29.8009 179.364 29.8444C179.407 29.8879 179.441 29.941 179.46 29.9995C179.48 30.0581 179.486 30.1204 179.477 30.1815V31.7709C179.486 31.8321 179.48 31.8944 179.46 31.9529C179.441 32.0115 179.407 32.0646 179.364 32.1081C179.32 32.1515 179.266 32.1841 179.208 32.2033C179.149 32.2224 179.086 32.2276 179.025 32.2183H169.029C168.443 32.2256 167.858 32.1554 167.29 32.0095C166.809 31.888 166.359 31.6626 165.974 31.3491C165.594 31.0342 165.301 30.628 165.121 30.1688C164.906 29.6003 164.803 28.9953 164.819 28.3876V17.5772C164.787 17.0449 164.86 16.5114 165.035 16.0076C165.21 15.5037 165.482 15.0394 165.837 14.6413C166.224 14.2762 166.681 13.9946 167.181 13.8142C167.681 13.6339 168.213 13.5586 168.743 13.5931H179.025Z" fill="#D6E4F0"/>
<path d="M187.829 24.1306C187.569 24.1306 187.36 24.3096 187.198 24.6718L183.904 31.7963C183.855 31.9284 183.765 32.0411 183.647 32.1179C183.528 32.1946 183.389 32.2313 183.248 32.2224H181.118C180.819 32.2224 180.73 32.0818 180.849 31.7963L185.038 22.9034L180.879 14.0148C180.76 13.7336 180.836 13.5887 181.118 13.5887H183.274C183.41 13.583 183.545 13.6213 183.657 13.6981C183.77 13.7748 183.855 13.8859 183.9 14.0148L187.164 21.0499C187.245 21.2075 187.326 21.3481 187.403 21.476C187.452 21.5398 187.518 21.5897 187.592 21.621C187.667 21.6524 187.748 21.6641 187.829 21.6549H190.999C191.079 21.6645 191.161 21.653 191.236 21.6216C191.31 21.5903 191.376 21.5401 191.425 21.476C191.522 21.3414 191.608 21.1989 191.681 21.0499L194.915 14.0148C194.972 13.8887 195.065 13.7817 195.181 13.7062C195.297 13.6307 195.433 13.59 195.571 13.5887H197.702C198 13.5887 198.089 13.7307 197.97 14.0148L193.782 22.9034L197.97 31.7963C198.089 32.0733 198.013 32.2224 197.732 32.2224H195.575C195.439 32.2282 195.305 32.1898 195.192 32.113C195.079 32.0363 194.994 31.9252 194.949 31.7963L191.625 24.6718C191.566 24.5284 191.491 24.3925 191.4 24.267C191.356 24.2197 191.302 24.1829 191.243 24.1593C191.183 24.1356 191.119 24.1259 191.054 24.1306H187.829Z" fill="#D6E4F0"/>
</g>
<defs>
<clipPath id="clip0_69_2">
<rect width="198" height="45.7513" fill="white"/>
</clipPath>
</defs>
</svg>
