<svg width="587" height="395" viewBox="0 0 587 395" fill="none" xmlns="http://www.w3.org/2000/svg">
<path d="M429.789 394.608C401.447 394.608 377.465 389.521 357.844 379.347C338.222 369.173 322.234 355.184 309.88 337.379C297.526 319.211 288.624 298.318 283.173 274.7C277.723 250.718 274.998 225.283 274.998 198.394C274.998 170.779 277.723 144.98 283.173 120.999C288.987 97.0169 298.071 75.9421 310.425 57.7741C323.143 39.6062 339.312 25.4352 358.934 15.2611C378.918 5.08703 402.9 0 430.879 0C459.948 0 484.293 5.2687 503.914 15.8061C523.899 26.3435 539.887 41.0596 551.878 59.9543C564.232 78.4856 572.952 99.5604 578.039 123.179C583.49 146.797 586.215 171.506 586.215 197.304C586.215 223.829 583.49 248.901 578.039 272.52C572.589 296.138 563.868 317.213 551.878 335.744C539.887 353.912 523.899 368.265 503.914 378.802C483.929 389.34 459.221 394.608 429.789 394.608ZM429.789 322.663C447.593 322.663 461.583 318.666 471.757 310.672C482.294 302.315 490.106 291.596 495.193 278.515C500.644 265.434 504.096 251.808 505.549 237.637C507.366 223.103 508.274 209.658 508.274 197.304C508.274 185.677 507.366 172.777 505.549 158.606C504.096 144.072 500.826 130.446 495.738 117.728C490.651 104.647 483.021 93.9284 472.847 85.5711C462.673 77.2139 448.865 73.0352 431.424 73.0352C413.983 73.0352 399.993 77.2139 389.456 85.5711C378.918 93.565 370.925 104.102 365.474 117.183C360.387 130.264 356.935 143.89 355.118 158.061C353.302 172.232 352.393 185.313 352.393 197.304C352.393 209.295 353.12 222.558 354.573 237.092C356.39 251.626 359.842 265.434 364.929 278.515C370.016 291.596 377.647 302.315 387.821 310.672C398.358 318.666 412.348 322.663 429.789 322.663Z" fill="url(#paint0_linear_1_27)"/>
<path d="M0 390.248V325.933L106.828 237.092C114.458 230.551 123.179 223.284 132.99 215.29C143.164 206.933 152.793 198.031 161.877 188.583C171.324 179.136 178.954 169.144 184.768 158.606C190.945 148.069 194.034 137.168 194.034 125.904C194.034 110.28 189.129 97.562 179.318 87.7513C169.87 77.9406 155.881 73.0352 137.35 73.0352C119.909 73.0352 106.101 77.0322 95.9269 85.0261C86.1162 92.6566 79.9391 102.467 77.3955 114.458H2.18016C4.36031 88.6597 11.9909 67.4032 25.0718 50.6886C38.5161 33.6107 55.4123 20.8932 75.7604 12.5359C96.1085 4.17863 117.547 0 140.075 0C164.42 0 186.585 4.54198 206.57 13.626C226.555 22.7099 242.361 35.9726 253.988 53.4138C265.616 70.4917 271.429 91.7482 271.429 117.183C271.429 138.985 267.251 158.788 258.894 176.593C250.9 194.034 239.817 210.385 225.646 225.646C211.475 240.544 195.487 254.897 177.683 268.704L116.638 318.303H270.884V390.248H0Z" fill="url(#paint1_linear_1_27)"/>
<defs>
<linearGradient id="paint0_linear_1_27" x1="430.606" y1="32.5" x2="430.606" y2="390.5" gradientUnits="userSpaceOnUse">
<stop stop-color="#163172"/>
<stop offset="1" stop-color="#163172" stop-opacity="0"/>
</linearGradient>
<linearGradient id="paint1_linear_1_27" x1="135.715" y1="32.1409" x2="135.715" y2="386.185" gradientUnits="userSpaceOnUse">
<stop stop-color="#163172"/>
<stop offset="1" stop-color="#163172" stop-opacity="0"/>
</linearGradient>
</defs>
</svg>
