<svg width="100" height="100" viewBox="0 0 100 100" fill="none" xmlns="http://www.w3.org/2000/svg">
<path d="M70.7184 0H29.2816L0 29.2835V70.7165L29.2816 100H70.7184L100 70.7165V29.2835L70.7184 0ZM85.3029 68.3925C85.3029 70.6153 84.865 72.8163 84.0143 74.8698C83.1635 76.9233 81.9166 78.789 80.3447 80.3605C78.7727 81.9319 76.9068 83.1782 74.8531 84.0283C72.7995 84.8783 70.5983 85.3155 68.3757 85.3146H31.6179C27.1302 85.3146 22.8262 83.5318 19.6529 80.3583C16.4796 77.1848 14.6971 72.8806 14.6971 68.3925V31.6324C14.6963 29.4096 15.1333 27.2085 15.9833 25.1547C16.8333 23.1009 18.0794 21.2347 19.6508 19.6626C21.2221 18.0906 23.0877 16.8436 25.1411 15.9928C27.1944 15.142 29.3953 14.704 31.6179 14.704H68.3757C70.5988 14.7032 72.8006 15.1405 74.8547 15.991C76.9087 16.8414 78.7751 18.0883 80.3471 19.6604C81.9191 21.2325 83.1657 23.099 84.0161 25.1532C84.8665 27.2074 85.3037 29.4091 85.3029 31.6324V68.3925Z" fill="#163172"/>
</svg>
