<svg width="100" height="100" viewBox="0 0 100 100" fill="none" xmlns="http://www.w3.org/2000/svg">
<path d="M23.7884 0C30.0974 0 36.1481 2.5064 40.6093 6.96788C45.0705 11.4294 47.5767 17.4805 47.5767 23.79V100H23.7884C17.4793 100 11.4286 97.4936 6.96743 93.0321C2.50624 88.5706 0 82.5195 0 76.21V23.79C0 17.4805 2.50624 11.4294 6.96743 6.96788C11.4286 2.5064 17.4793 0 23.7884 0Z" fill="#163172"/>
<path d="M52.4105 76.2038V0H76.2049C82.5156 0 88.568 2.50706 93.0304 6.96971C97.4927 11.4324 99.9996 17.4851 99.9996 23.7962V76.2038C99.9996 82.5149 97.4927 88.5676 93.0304 93.0303C88.568 97.4929 82.5156 100 76.2049 100C69.8947 99.9984 63.8435 97.4908 59.3815 93.0285C54.9195 88.5662 52.4121 82.5144 52.4105 76.2038Z" fill="#163172"/>
</svg>
